<svg width="43" height="26" viewBox="0 0 43 26" fill="none" xmlns="http://www.w3.org/2000/svg">
<path d="M16.0164 25.448C15.7524 25.328 15.5604 25.136 15.4404 24.872C15.3204 24.608 15.2604 24.284 15.2604 23.9C15.2604 23.132 15.4404 22.196 15.8004 21.092C16.1844 19.964 16.5684 18.884 16.9524 17.852C17.2644 17.06 17.6004 16.124 17.9604 15.044C18.3444 13.94 18.7284 12.788 19.1124 11.588C19.5204 10.364 19.9044 9.188 20.2644 8.06C20.6244 6.932 20.9244 5.936 21.1644 5.072C21.4284 4.184 21.6084 3.536 21.7044 3.128C19.8324 3.872 18.1524 4.76 16.6644 5.792C15.1764 6.8 13.7844 7.94 12.4884 9.212C11.2164 10.46 9.93238 11.828 8.63638 13.316H13.7124C13.8084 13.316 14.0244 13.328 14.3604 13.352C14.6964 13.352 15.0564 13.376 15.4404 13.424C15.8244 13.448 16.1484 13.496 16.4124 13.568C16.7004 13.616 16.8444 13.7 16.8444 13.82C16.8444 14.012 16.6044 14.18 16.1244 14.324C15.6684 14.444 15.0684 14.552 14.3244 14.648C13.6044 14.72 12.8484 14.78 12.0564 14.828C11.2644 14.852 10.5324 14.876 9.86038 14.9C9.18838 14.924 8.68438 14.936 8.34838 14.936C7.89238 14.936 7.38838 15.188 6.83638 15.692C6.28438 16.196 5.73238 16.856 5.18038 17.672C4.65238 18.488 4.14838 19.364 3.66838 20.3C3.21238 21.212 2.80438 22.088 2.44438 22.928C2.10838 23.768 1.86838 24.476 1.72438 25.052C1.72438 25.1 1.71238 25.16 1.68838 25.232C1.66438 25.304 1.61638 25.34 1.54438 25.34C1.40038 25.34 1.25638 25.208 1.11238 24.944C0.944376 24.704 0.860376 24.524 0.860376 24.404C0.860376 23.756 1.01638 23 1.32838 22.136C1.64038 21.272 2.02438 20.396 2.48038 19.508C2.96038 18.596 3.45238 17.744 3.95638 16.952C4.48438 16.16 4.95238 15.512 5.36038 15.008C4.76038 15.008 4.14838 15.02 3.52438 15.044C2.90038 15.044 2.27638 15.044 1.65238 15.044C1.50838 15.044 1.36438 14.996 1.22038 14.9C1.05238 14.78 0.944376 14.648 0.896376 14.504C0.992376 14.24 1.28038 14.06 1.76038 13.964C2.24038 13.844 2.79238 13.772 3.41638 13.748C4.06438 13.7 4.67638 13.664 5.25238 13.64C5.82838 13.616 6.24838 13.568 6.51238 13.496C6.94438 12.968 7.53238 12.32 8.27638 11.552C9.02038 10.784 9.87238 9.968 10.8324 9.104C11.7924 8.24 12.8004 7.388 13.8564 6.548C14.9124 5.708 15.9564 4.94 16.9884 4.244C18.0204 3.548 18.9924 2.996 19.9044 2.588C20.8164 2.156 21.5964 1.94 22.2444 1.94C22.4364 1.94 22.7004 1.976 23.0364 2.048C23.3724 2.096 23.6844 2.192 23.9724 2.336C24.2604 2.48 24.4044 2.684 24.4044 2.948C24.4044 3.26 24.2364 3.872 23.9004 4.784C23.5884 5.696 23.1684 6.788 22.6404 8.06C22.1124 9.308 21.5484 10.628 20.9484 12.02C20.3484 13.388 19.7724 14.696 19.2204 15.944C18.6684 17.192 18.2004 18.248 17.8164 19.112C17.2644 20.456 16.8564 21.536 16.5924 22.352C16.3524 23.168 16.2324 23.816 16.2324 24.296C16.2324 24.656 16.3044 24.968 16.4484 25.232C16.4724 25.256 16.4244 25.304 16.3044 25.376C16.1844 25.448 16.0884 25.472 16.0164 25.448ZM23.7046 23.576C23.4646 23.576 23.2246 23.564 22.9846 23.54C22.7446 23.54 22.5166 23.528 22.3006 23.504H22.2286C22.0606 23.48 21.7486 23.444 21.2926 23.396C20.8606 23.372 20.3926 23.324 19.8886 23.252C19.3846 23.18 18.9526 23.072 18.5926 22.928C18.2326 22.784 18.0406 22.604 18.0166 22.388C17.9926 22.268 18.0766 22.208 18.2686 22.208C18.4606 22.184 18.5806 22.172 18.6286 22.172C19.2526 22.172 19.8646 22.208 20.4646 22.28L21.4366 22.388C21.4126 22.244 21.3766 22.112 21.3286 21.992C21.3046 21.872 21.2926 21.764 21.2926 21.668C21.2926 21.572 21.2806 21.488 21.2566 21.416C21.2566 21.32 21.2566 21.224 21.2566 21.128C21.2566 20.096 21.4846 18.92 21.9406 17.6C22.3966 16.256 22.9846 14.864 23.7046 13.424C24.4486 11.984 25.2406 10.58 26.0806 9.212C26.9206 7.82 27.7486 6.572 28.5646 5.468C29.3806 4.34 30.0886 3.44 30.6886 2.768C30.3766 2.744 30.0646 2.732 29.7526 2.732C29.4646 2.732 29.1526 2.732 28.8166 2.732C28.1926 2.732 27.4486 2.756 26.5846 2.804C25.7206 2.828 24.9886 2.936 24.3886 3.128C24.1486 3.2 23.9086 3.272 23.6686 3.344C23.4286 3.416 23.1766 3.452 22.9126 3.452C22.8886 3.452 22.8166 3.452 22.6966 3.452C22.5766 3.428 22.5166 3.38 22.5166 3.308C22.4686 2.852 22.6846 2.48 23.1646 2.192C23.6446 1.88 24.2206 1.64 24.8926 1.472C25.5886 1.28 26.2486 1.148 26.8726 1.076C27.5206 1.004 27.9886 0.967998 28.2766 0.967998C28.9726 0.967998 29.8846 1.016 31.0126 1.112C32.1646 1.208 33.3646 1.376 34.6126 1.616C35.8846 1.856 37.0966 2.192 38.2486 2.624C39.4006 3.032 40.3486 3.572 41.0926 4.244C41.8606 4.892 42.2926 5.672 42.3886 6.584C42.4606 7.304 42.2686 7.94 41.8126 8.492C41.3566 9.02 40.7566 9.488 40.0126 9.896C39.2686 10.304 38.4646 10.664 37.6006 10.976C36.7366 11.288 35.9086 11.564 35.1166 11.804C34.3486 12.044 33.7246 12.284 33.2446 12.524C34.0126 12.716 34.7566 13.064 35.4766 13.568C36.1966 14.048 36.7966 14.636 37.2766 15.332C37.7806 16.004 38.0686 16.748 38.1406 17.564C38.2126 18.284 37.9366 18.956 37.3126 19.58C36.7126 20.204 35.8846 20.768 34.8286 21.272C33.7966 21.752 32.6326 22.172 31.3366 22.532C30.0406 22.868 28.7206 23.12 27.3766 23.288C26.0566 23.48 24.8326 23.576 23.7046 23.576ZM26.3686 12.452H27.2326C27.6646 12.452 28.3006 12.38 29.1406 12.236C30.0046 12.068 30.9646 11.84 32.0206 11.552C33.1006 11.264 34.1926 10.928 35.2966 10.544C36.4006 10.16 37.4086 9.752 38.3206 9.32C39.2566 8.864 40.0006 8.396 40.5526 7.916C41.1286 7.412 41.4166 6.908 41.4166 6.404C41.4166 5.9 41.1526 5.456 40.6246 5.072C40.1206 4.688 39.4606 4.364 38.6446 4.1C37.8526 3.812 37.0126 3.584 36.1246 3.416C35.2366 3.224 34.4086 3.092 33.6406 3.02C32.8966 2.924 32.3206 2.876 31.9126 2.876C32.0086 2.996 32.1046 3.128 32.2006 3.272C32.2966 3.416 32.3566 3.572 32.3806 3.74V3.812C32.3806 4.004 32.3206 4.16 32.2006 4.28C31.1686 5.6 30.1126 6.908 29.0326 8.204C27.9526 9.5 27.0646 10.916 26.3686 12.452ZM22.4446 22.424C23.5486 22.424 24.7366 22.328 26.0086 22.136C27.2806 21.944 28.5406 21.68 29.7886 21.344C31.0366 20.984 32.1646 20.576 33.1726 20.12C34.2046 19.64 35.0206 19.124 35.6206 18.572C36.2446 17.996 36.5566 17.384 36.5566 16.736C36.5566 16.16 36.3526 15.656 35.9446 15.224C35.5606 14.792 35.0686 14.444 34.4686 14.18C33.8686 13.892 33.2566 13.688 32.6326 13.568C32.0086 13.424 31.4686 13.352 31.0126 13.352C30.5086 13.352 29.9806 13.436 29.4286 13.604C28.9006 13.748 28.4086 13.904 27.9526 14.072C27.4966 14.24 27.1246 14.324 26.8366 14.324C26.5966 14.324 26.3926 14.192 26.2246 13.928C26.0566 13.64 25.9726 13.4 25.9726 13.208C25.4206 14.072 24.8686 15.008 24.3166 16.016C23.7646 17 23.3086 18.032 22.9486 19.112C22.5886 20.192 22.4206 21.296 22.4446 22.424Z" fill="#042AB0"/>
</svg>
